<?xml version="1.0" standalone="no"?>
<!DOCTYPE svg PUBLIC "-//W3C//DTD SVG 20010904//EN"
 "http://www.w3.org/TR/2001/REC-SVG-20010904/DTD/svg10.dtd">
<svg version="1.0" xmlns="http://www.w3.org/2000/svg"
 width="500.000000pt" height="500.000000pt" viewBox="0 0 500.000000 500.000000"
 preserveAspectRatio="xMidYMid meet">

<g transform="translate(0.000000,500.000000) scale(0.100000,-0.100000)"
fill="#000000" stroke="none">
<path d="M0 2500 l0 -2500 2500 0 2500 0 0 2500 0 2500 -2500 0 -2500 0 0
-2500z m2818 1591 c276 -59 529 -189 743 -381 189 -168 351 -414 435 -659 18
-53 33 -89 34 -81 0 12 12 14 60 12 l60 -4 0 -298 0 -299 -32 -3 c-29 -3 -33
-7 -35 -33 -16 -189 -76 -400 -165 -580 -229 -462 -656 -780 -1162 -867 -158
-26 -420 -22 -566 10 -204 45 -389 123 -565 239 -133 88 -337 292 -424 423
-150 225 -246 484 -276 742 -6 56 -7 58 -41 64 l-34 6 0 250 c0 313 -1 310
118 355 17 6 29 27 48 81 33 99 110 249 185 362 85 128 291 334 418 419 207
137 443 229 672 261 109 15 421 4 527 -19z"/>
<path d="M2379 4010 c-244 -19 -475 -102 -700 -251 -121 -80 -303 -262 -387
-386 -87 -128 -203 -365 -187 -382 4 -3 68 -8 143 -11 75 -3 145 -10 154 -14
10 -4 27 -23 38 -41 19 -30 20 -49 20 -289 l0 -256 -60 0 -60 0 -2 243 -3 242
-57 3 -58 3 0 -223 c0 -123 -3 -233 -6 -245 -6 -20 -13 -23 -60 -23 l-54 0 -2
223 c0 122 -1 229 -2 237 -1 8 -10 16 -22 18 -19 3 -22 -5 -35 -90 -21 -137
-18 -407 5 -545 18 -107 20 -113 42 -113 21 0 24 -5 24 -40 l0 -40 120 0 120
0 0 120 0 120 -75 0 -75 0 0 35 0 35 110 0 110 0 0 -165 c0 -150 -2 -167 -19
-184 -27 -27 -73 -34 -200 -29 -74 2 -104 0 -96 -7 7 -5 34 -54 60 -108 142
-298 397 -563 682 -706 466 -233 1011 -205 1440 75 245 159 426 366 555 634
28 58 54 107 58 110 5 3 -66 3 -156 2 l-164 -4 0 36 0 36 155 0 155 0 0 45 0
45 -133 0 c-127 0 -135 1 -155 23 -19 20 -22 35 -22 110 l0 87 35 0 35 0 0
-75 0 -75 120 0 120 0 0 75 0 75 30 0 30 0 0 -163 c0 -131 -3 -167 -16 -187
l-16 -25 21 24 c18 20 21 36 21 110 0 47 5 113 10 146 6 33 13 131 17 218 l6
157 -166 0 -167 0 0 -120 0 -120 -60 0 -60 0 0 300 0 300 60 0 60 0 0 -120 0
-120 155 0 c85 0 155 3 155 8 0 4 -9 43 -19 87 -79 325 -264 632 -500 829
-309 257 -678 376 -1072 346z m-249 -1085 l0 -55 -120 0 -120 0 0 -190 0 -190
120 0 120 0 0 -55 0 -55 -300 0 -300 0 0 39 c0 22 -3 46 -6 55 -5 13 11 16
118 18 l123 3 0 185 0 185 -122 3 -123 3 0 54 0 55 305 0 305 0 0 -55z m350
-140 c108 -108 199 -192 203 -189 4 4 7 92 7 196 l0 188 55 0 55 0 0 -285 0
-285 -25 -16 c-15 -10 -32 -13 -46 -9 -13 4 -110 93 -216 198 l-193 190 0
-174 c0 -96 -3 -184 -6 -196 -6 -20 -13 -23 -60 -23 l-54 0 0 282 c0 248 2
284 17 300 37 41 57 28 263 -177z m990 140 l0 -54 -117 -3 -118 -3 -3 -242 -2
-243 -60 0 -60 0 0 245 0 245 -120 0 -120 0 0 55 0 55 300 0 300 0 0 -55z
m-1656 -606 c26 -20 26 -21 26 -164 0 -191 2 -188 -149 -193 -129 -5 -175 2
-202 29 -17 17 -19 34 -19 159 0 136 1 142 25 165 23 24 29 25 158 25 121 0
137 -2 161 -21z m146 -134 l0 -155 120 0 120 0 0 155 0 155 36 0 35 0 -3 -165
c-4 -214 0 -209 -165 -213 -136 -4 -184 6 -201 43 -8 16 -12 84 -12 180 l0
155 35 0 35 0 0 -155z m705 130 c21 -20 25 -34 25 -85 0 -82 -26 -110 -100
-110 -27 0 -50 -3 -50 -7 0 -4 17 -24 37 -45 30 -31 44 -38 75 -38 37 0 38 -1
38 -35 0 -35 0 -35 -46 -35 -45 0 -50 3 -128 80 -62 60 -89 80 -109 80 l-27 0
0 -80 0 -80 -35 0 -35 0 0 190 0 190 165 0 c163 0 166 0 190 -25z m235 -100
c69 -69 128 -125 132 -125 5 0 8 56 8 125 l0 125 35 0 35 0 0 -169 c0 -93 -3
-176 -6 -185 -14 -37 -50 -15 -176 111 l-128 128 0 -133 0 -132 -35 0 -35 0 0
171 c0 166 7 209 33 209 7 0 68 -56 137 -125z m630 90 l0 -35 -155 0 -155 0 0
-40 0 -40 155 0 155 0 0 -35 0 -35 -155 0 -155 0 0 -45 0 -45 155 0 155 0 0
-36 0 -36 -166 4 c-214 4 -204 -6 -204 193 0 192 -8 185 211 185 l159 0 0 -35z"/>
<path d="M1540 2150 l0 -120 120 0 120 0 0 120 0 120 -120 0 -120 0 0 -120z"/>
<path d="M2380 2230 l0 -40 120 0 120 0 0 40 0 40 -120 0 -120 0 0 -40z"/>
<path d="M1043 2060 c0 -30 2 -43 4 -27 2 15 2 39 0 55 -2 15 -4 2 -4 -28z"/>
<path d="M1050 1996 c0 -2 8 -10 18 -17 15 -13 16 -12 3 4 -13 16 -21 21 -21
13z"/>
</g>
</svg>
